<?xml version="1.0" encoding="UTF-8" standalone="no"?>
<!-- Generator: Adobe Illustrator 16.0.4, SVG Export Plug-In . SVG Version: 6.00 Build 0)  -->

<svg
   xmlns:dc="http://purl.org/dc/elements/1.1/"
   xmlns:cc="http://creativecommons.org/ns#"
   xmlns:rdf="http://www.w3.org/1999/02/22-rdf-syntax-ns#"
   xmlns:svg="http://www.w3.org/2000/svg"
   xmlns="http://www.w3.org/2000/svg"
   xmlns:sodipodi="http://sodipodi.sourceforge.net/DTD/sodipodi-0.dtd"
   xmlns:inkscape="http://www.inkscape.org/namespaces/inkscape"
   version="1.1"
   id="Capa_1"
   x="0px"
   y="0px"
   width="26.970789"
   height="26.970789"
   viewBox="0 0 26.97079 26.970788"
   enable-background="new 0 0 23.421 20.801"
   xml:space="preserve"
   inkscape:version="0.48.4 r9939"
   sodipodi:docname="icon.svg"><metadata
     id="metadata21"><rdf:RDF><cc:Work
         rdf:about=""><dc:format>image/svg+xml</dc:format><dc:type
           rdf:resource="http://purl.org/dc/dcmitype/StillImage" /><dc:title /></cc:Work></rdf:RDF></metadata><defs
     id="defs19" /><sodipodi:namedview
     pagecolor="#ffffff"
     bordercolor="#666666"
     borderopacity="1"
     objecttolerance="10"
     gridtolerance="10"
     guidetolerance="10"
     inkscape:pageopacity="0"
     inkscape:pageshadow="2"
     inkscape:window-width="959"
     inkscape:window-height="1028"
     id="namedview17"
     showgrid="false"
     fit-margin-top="0"
     fit-margin-left="0"
     fit-margin-right="0"
     fit-margin-bottom="0"
     inkscape:zoom="2.836402"
     inkscape:cx="-41.820485"
     inkscape:cy="-15.762092"
     inkscape:window-x="0"
     inkscape:window-y="26"
     inkscape:window-maximized="0"
     inkscape:current-layer="Capa_1" /><rect
     style="fill:#80afff;fill-opacity:1;stroke:none"
     id="rect3000"
     width="26.970791"
     height="26.970791"
     x="4.4408921e-16"
     y="-8.4711269e-07" /><g
     id="g3"
     transform="translate(2.2644198,4.1173562)"
     style="fill:#000000;fill-opacity:1"><rect
       x="3.3729999"
       y="10.479"
       width="2.0710001"
       height="2.072"
       id="rect5"
       style="fill:#000000;fill-opacity:1" /><rect
       x="3.3729999"
       y="13.756"
       width="2.0710001"
       height="2.0699999"
       id="rect7"
       style="fill:#000000;fill-opacity:1" /><rect
       x="6.8439999"
       y="7.2010002"
       width="2.0710001"
       height="2.0710001"
       id="rect9"
       style="fill:#000000;fill-opacity:1" /><rect
       x="6.8439999"
       y="10.479"
       width="2.0710001"
       height="2.072"
       id="rect11"
       style="fill:#000000;fill-opacity:1" /><rect
       x="6.8439999"
       y="13.756"
       width="2.0710001"
       height="2.0699999"
       id="rect13"
       style="fill:#000000;fill-opacity:1" /><path
       d="M 19.278,7.499 V 1.457 C 19.278,0.655 18.623,0 17.821,0 H 1.457 C 0.655,0 0,0.655 0,1.457 V 17.82 c 0,0.802 0.655,1.457 1.457,1.457 h 10.681 c 1.188,0.951 2.693,1.522 4.333,1.522 3.838,0 6.951,-3.11 6.951,-6.948 C 23.421,11.014 21.716,8.578 19.278,7.499 z M 6.315,1.431 h 6.642 V 3.148 H 6.315 V 1.431 z M 1.79,4.788 H 17.486 V 6.986 C 17.154,6.937 16.816,6.903 16.47,6.903 c -1.529,0 -2.938,0.5 -4.086,1.337 V 7.2 h -2.07 v 2.071 h 0.941 c -1.075,1.223 -1.731,2.823 -1.731,4.58 0,1.254 0.337,2.427 0.917,3.442 H 1.79 V 4.788 z m 14.043,3.403 c 0,-0.353 0.287,-0.636 0.637,-0.636 0.354,0 0.637,0.283 0.638,0.636 0,0.352 -0.284,0.637 -0.638,0.637 -0.349,0 -0.637,-0.285 -0.637,-0.637 z m -4.385,5.661 c 0,0.353 -0.284,0.639 -0.638,0.639 -0.353,0 -0.637,-0.286 -0.637,-0.639 0,-0.353 0.284,-0.636 0.637,-0.636 0.353,0 0.637,0.283 0.638,0.636 z m 5.022,6.298 c -0.35,0 -0.637,-0.284 -0.637,-0.635 0,-0.354 0.287,-0.64 0.637,-0.64 0.354,0 0.637,0.285 0.638,0.64 0,0.351 -0.284,0.635 -0.638,0.635 z m 3.858,-9.171 -2.667,2.663 c 0.018,0.082 0.05,0.158 0.05,0.245 0,0.691 -0.561,1.252 -1.252,1.252 -0.667,0 -1.201,-0.527 -1.237,-1.187 l -2.833,-2.201 c -0.245,-0.192 -0.303,-0.53 -0.125,-0.756 0.177,-0.229 0.521,-0.257 0.766,-0.065 l 2.593,2.018 c 0.224,-0.21 0.52,-0.344 0.849,-0.344 0.218,0 0.412,0.07 0.59,0.168 l 2.527,-2.53 c 0.236,-0.235 0.593,-0.258 0.793,-0.055 0.201,0.202 0.178,0.556 -0.054,0.792 z m 1.802,3.511 c -0.352,0 -0.637,-0.286 -0.637,-0.639 0,-0.353 0.285,-0.636 0.637,-0.636 0.353,0 0.639,0.283 0.639,0.636 0,0.353 -0.285,0.639 -0.639,0.639 z"
       id="path15"
       inkscape:connector-curvature="0"
       style="fill:#000000;fill-opacity:1" /></g></svg>