<?xml version="1.0" encoding="UTF-8" ?>
<!DOCTYPE svg PUBLIC "-//W3C//DTD SVG 1.1//EN" "http://www.w3.org/Graphics/SVG/1.1/DTD/svg11.dtd">
<svg width="63pt" height="63pt" viewBox="0 0 63 63" version="1.1" xmlns="http://www.w3.org/2000/svg">
<path fill="#6ba6d1" d=" M 0.00 0.00 L 36.29 0.00 C 33.85 2.24 31.75 4.82 29.66 7.39 C 29.33 6.79 28.68 5.59 28.35 4.99 C 27.10 6.26 26.13 7.75 25.30 9.32 C 24.01 7.38 22.66 5.47 21.33 3.56 C 20.84 4.51 20.36 5.47 19.88 6.42 C 18.65 6.36 17.43 6.32 16.21 6.26 C 16.84 9.94 17.09 13.67 17.69 17.35 C 19.17 16.46 20.63 15.55 22.09 14.63 C 23.35 18.51 23.57 22.65 24.92 26.51 C 26.09 29.59 28.50 32.85 32.05 33.14 C 35.49 33.40 38.25 30.51 39.39 27.52 C 40.62 23.84 39.56 19.94 38.90 16.26 C 40.59 15.47 42.15 16.81 43.68 17.38 C 43.65 16.43 43.63 15.48 43.61 14.54 C 45.42 15.05 47.22 15.55 49.03 16.04 C 46.37 13.10 43.18 10.73 40.12 8.24 C 39.99 6.37 39.85 4.51 39.71 2.64 C 38.34 3.94 37.00 5.27 35.71 6.64 C 36.49 4.44 37.17 2.20 37.95 0.00 L 63.00 0.00 L 63.00 63.00 L 28.10 63.00 C 27.45 61.47 26.87 59.91 26.28 58.35 C 30.43 58.89 34.71 60.10 38.86 58.93 C 41.58 58.26 44.00 56.77 46.29 55.20 C 45.86 55.24 45.00 55.33 44.57 55.38 C 45.24 53.39 46.80 51.37 45.96 49.20 C 44.60 44.51 41.70 40.39 38.10 37.15 C 36.45 35.92 34.75 34.27 32.55 34.29 C 31.27 34.57 30.37 35.62 29.34 36.34 C 28.23 35.28 27.15 34.21 26.07 33.12 L 25.80 33.63 C 23.18 36.95 22.31 41.18 22.33 45.33 C 22.39 51.26 21.79 57.62 24.80 63.00 L 0.00 63.00 L 0.00 0.00 Z" />
<path fill="#dd8967" d=" M 36.29 0.00 L 37.95 0.00 C 37.17 2.20 36.49 4.44 35.71 6.64 C 37.00 5.27 38.34 3.94 39.71 2.64 C 39.85 4.51 39.99 6.37 40.12 8.24 C 43.18 10.73 46.37 13.10 49.03 16.04 C 47.22 15.55 45.42 15.05 43.61 14.54 C 43.63 15.48 43.65 16.43 43.68 17.38 C 42.15 16.81 40.59 15.47 38.90 16.26 C 37.63 15.85 36.41 15.29 35.16 14.79 C 35.75 13.87 36.33 12.96 36.92 12.04 C 31.94 12.34 26.37 11.47 22.09 14.63 C 20.63 15.55 19.17 16.46 17.69 17.35 C 17.09 13.67 16.84 9.94 16.21 6.26 C 17.43 6.32 18.65 6.36 19.88 6.42 C 20.36 5.47 20.84 4.51 21.33 3.56 C 22.66 5.47 24.01 7.38 25.30 9.32 C 26.13 7.75 27.10 6.26 28.35 4.99 C 28.68 5.59 29.33 6.79 29.66 7.39 C 31.75 4.82 33.85 2.24 36.29 0.00 Z" />
<path fill="#524048" d=" M 22.09 14.63 C 26.37 11.47 31.94 12.34 36.92 12.04 C 36.33 12.96 35.75 13.87 35.16 14.79 C 32.02 14.22 28.80 14.20 25.65 14.71 C 25.28 18.63 25.13 22.57 24.92 26.51 C 23.57 22.65 23.35 18.51 22.09 14.63 Z" />
<path fill="#fae6d5" d=" M 25.65 14.71 C 28.80 14.20 32.02 14.22 35.16 14.79 C 36.41 15.29 37.63 15.85 38.90 16.26 C 39.56 19.94 40.62 23.84 39.39 27.52 C 38.25 30.51 35.49 33.40 32.05 33.14 C 28.50 32.85 26.09 29.59 24.92 26.51 C 25.13 22.57 25.28 18.63 25.65 14.71 Z" />
<path fill="#524048" d=" M 26.54 18.19 C 27.35 17.26 29.45 17.38 29.67 18.77 C 29.53 20.74 25.53 20.13 26.54 18.19 Z" />
<path fill="#000000" d=" M 33.55 18.18 C 34.35 17.23 36.50 17.37 36.70 18.78 C 36.49 20.68 32.56 20.11 33.55 18.18 Z" />
<path fill="#dd8967" d=" M 26.72 25.15 C 28.44 26.06 29.95 27.58 31.90 27.96 C 33.46 27.11 34.88 26.02 36.36 25.04 C 35.65 27.80 33.29 30.46 30.19 29.91 C 27.85 29.63 27.52 26.89 26.72 25.15 Z" />
<path fill="#fae6d5" d=" M 54.12 28.76 C 55.08 26.26 57.30 24.94 59.95 25.05 C 59.65 28.09 56.75 28.96 54.12 28.76 Z" />
<path fill="#fae6d5" d=" M 4.32 31.19 C 4.85 31.27 5.93 31.43 6.46 31.51 C 6.93 32.31 7.39 33.11 7.86 33.91 C 6.69 33.80 5.53 33.69 4.37 33.58 C 4.36 32.99 4.33 31.79 4.32 31.19 Z" />
<path fill="#fae6d5" d=" M 26.07 33.12 C 27.15 34.21 28.23 35.28 29.34 36.34 C 30.37 35.62 31.27 34.57 32.55 34.29 C 34.75 34.27 36.45 35.92 38.10 37.15 C 37.55 38.78 36.99 40.41 36.29 41.98 C 35.37 41.05 34.45 40.12 33.54 39.19 C 31.71 40.01 29.93 40.96 28.29 42.13 C 27.90 45.19 25.82 47.79 25.96 50.91 C 25.92 52.98 25.96 55.05 25.91 57.12 C 21.21 49.73 28.10 41.38 25.80 33.63 L 26.07 33.12 Z" />
<path fill="#524048" d=" M 22.33 45.33 C 22.31 41.18 23.18 36.95 25.80 33.63 C 28.10 41.38 21.21 49.73 25.91 57.12 C 28.60 57.18 31.28 57.14 33.96 56.93 C 33.22 52.39 32.62 47.83 31.85 43.29 C 30.66 42.93 29.47 42.54 28.29 42.13 C 29.93 40.96 31.71 40.01 33.54 39.19 C 34.45 40.12 35.37 41.05 36.29 41.98 C 36.11 42.36 35.74 43.10 35.56 43.48 C 34.62 43.25 33.68 43.03 32.74 42.81 C 33.15 47.31 33.91 51.79 35.25 56.11 C 38.38 56.34 41.48 55.81 44.57 55.38 C 45.00 55.33 45.86 55.24 46.29 55.20 C 44.00 56.77 41.58 58.26 38.86 58.93 C 34.71 60.10 30.43 58.89 26.28 58.35 C 26.87 59.91 27.45 61.47 28.10 63.00 L 24.80 63.00 C 21.79 57.62 22.39 51.26 22.33 45.33 Z" />
<path fill="#fcfcfd" d=" M 38.10 37.15 C 41.70 40.39 44.60 44.51 45.96 49.20 C 46.80 51.37 45.24 53.39 44.57 55.38 C 41.48 55.81 38.38 56.34 35.25 56.11 C 33.91 51.79 33.15 47.31 32.74 42.81 C 33.68 43.03 34.62 43.25 35.56 43.48 C 35.74 43.10 36.11 42.36 36.29 41.98 C 36.99 40.41 37.55 38.78 38.10 37.15 Z" />
<path fill="#000000" d=" M 28.15 40.21 C 28.68 40.74 28.68 40.74 28.15 40.21 Z" />
<path fill="#fcfcfd" d=" M 25.96 50.91 C 25.82 47.79 27.90 45.19 28.29 42.13 C 29.47 42.54 30.66 42.93 31.85 43.29 C 32.62 47.83 33.22 52.39 33.96 56.93 C 31.28 57.14 28.60 57.18 25.91 57.12 C 25.96 55.05 25.92 52.98 25.96 50.91 Z" />
<path fill="#a99b9b" d=" M 35.12 50.28 C 38.46 50.37 33.62 53.28 35.12 50.28 Z" />
</svg>
